<mxfile host="app.diagrams.net" modified="2025-04-24T13:54:36.621Z" agent="Mozilla/5.0 (Macintosh; Intel Mac OS X 10_15_7) AppleWebKit/537.36 (KHTML, like Gecko) Chrome/134.0.0.0 Safari/537.36" etag="Wu-PjsERLN_mQ6wzeHM4" version="24.3.1" type="device">
  <diagram name="Pagina-1" id="Jir2A3iaw0NWy5bsIUDD">
    <mxGraphModel dx="591" dy="390" grid="1" gridSize="10" guides="1" tooltips="1" connect="1" arrows="1" fold="1" page="1" pageScale="1" pageWidth="827" pageHeight="1169" math="0" shadow="0">
      <root>
        <mxCell id="0" />
        <mxCell id="1" parent="0" />
        <mxCell id="wJMfoI_AiMmCnmL7STVD-4" value="" style="edgeStyle=orthogonalEdgeStyle;rounded=0;orthogonalLoop=1;jettySize=auto;html=1;" edge="1" parent="1" source="wJMfoI_AiMmCnmL7STVD-1" target="wJMfoI_AiMmCnmL7STVD-2">
          <mxGeometry relative="1" as="geometry" />
        </mxCell>
        <mxCell id="wJMfoI_AiMmCnmL7STVD-1" value="Customer in Magento" style="rounded=0;whiteSpace=wrap;html=1;" vertex="1" parent="1">
          <mxGeometry x="354" y="120" width="120" height="60" as="geometry" />
        </mxCell>
        <mxCell id="wJMfoI_AiMmCnmL7STVD-9" value="" style="edgeStyle=orthogonalEdgeStyle;rounded=0;orthogonalLoop=1;jettySize=auto;html=1;" edge="1" parent="1" source="wJMfoI_AiMmCnmL7STVD-2" target="wJMfoI_AiMmCnmL7STVD-6">
          <mxGeometry relative="1" as="geometry">
            <Array as="points">
              <mxPoint x="540" y="240" />
              <mxPoint x="540" y="240" />
            </Array>
          </mxGeometry>
        </mxCell>
        <mxCell id="wJMfoI_AiMmCnmL7STVD-10" value="Mask + Token" style="edgeLabel;html=1;align=center;verticalAlign=middle;resizable=0;points=[];" vertex="1" connectable="0" parent="wJMfoI_AiMmCnmL7STVD-9">
          <mxGeometry x="-0.0568" y="1" relative="1" as="geometry">
            <mxPoint x="-2" y="-9" as="offset" />
          </mxGeometry>
        </mxCell>
        <mxCell id="wJMfoI_AiMmCnmL7STVD-12" value="" style="edgeStyle=orthogonalEdgeStyle;rounded=0;orthogonalLoop=1;jettySize=auto;html=1;" edge="1" parent="1" source="wJMfoI_AiMmCnmL7STVD-2" target="wJMfoI_AiMmCnmL7STVD-11">
          <mxGeometry relative="1" as="geometry" />
        </mxCell>
        <mxCell id="wJMfoI_AiMmCnmL7STVD-2" value="Magento Checkout" style="rounded=0;whiteSpace=wrap;html=1;" vertex="1" parent="1">
          <mxGeometry x="354" y="230" width="120" height="60" as="geometry" />
        </mxCell>
        <mxCell id="wJMfoI_AiMmCnmL7STVD-27" value="" style="edgeStyle=orthogonalEdgeStyle;rounded=0;orthogonalLoop=1;jettySize=auto;html=1;entryX=1.002;entryY=0.837;entryDx=0;entryDy=0;entryPerimeter=0;" edge="1" parent="1" target="wJMfoI_AiMmCnmL7STVD-2">
          <mxGeometry relative="1" as="geometry">
            <mxPoint x="610" y="280.00000000000006" as="sourcePoint" />
            <mxPoint x="490" y="280" as="targetPoint" />
          </mxGeometry>
        </mxCell>
        <mxCell id="wJMfoI_AiMmCnmL7STVD-28" value="Signed url" style="edgeLabel;html=1;align=center;verticalAlign=middle;resizable=0;points=[];" vertex="1" connectable="0" parent="wJMfoI_AiMmCnmL7STVD-27">
          <mxGeometry x="-0.2458" relative="1" as="geometry">
            <mxPoint x="-21" y="-10" as="offset" />
          </mxGeometry>
        </mxCell>
        <mxCell id="wJMfoI_AiMmCnmL7STVD-38" value="" style="edgeStyle=orthogonalEdgeStyle;rounded=0;orthogonalLoop=1;jettySize=auto;html=1;" edge="1" parent="1" source="wJMfoI_AiMmCnmL7STVD-6" target="wJMfoI_AiMmCnmL7STVD-37">
          <mxGeometry relative="1" as="geometry" />
        </mxCell>
        <mxCell id="wJMfoI_AiMmCnmL7STVD-6" value="Rapidez API&lt;div&gt;&lt;br&gt;&lt;/div&gt;&lt;div&gt;Store mask + token&lt;div&gt;&lt;div&gt;Generates signed url&lt;/div&gt;&lt;/div&gt;&lt;/div&gt;" style="rounded=0;whiteSpace=wrap;html=1;" vertex="1" parent="1">
          <mxGeometry x="610" y="230" width="120" height="60" as="geometry" />
        </mxCell>
        <mxCell id="wJMfoI_AiMmCnmL7STVD-30" value="" style="edgeStyle=orthogonalEdgeStyle;rounded=0;orthogonalLoop=1;jettySize=auto;html=1;" edge="1" parent="1" source="wJMfoI_AiMmCnmL7STVD-11" target="wJMfoI_AiMmCnmL7STVD-29">
          <mxGeometry relative="1" as="geometry" />
        </mxCell>
        <mxCell id="wJMfoI_AiMmCnmL7STVD-11" value="Redirect to Rapidez" style="rounded=0;whiteSpace=wrap;html=1;" vertex="1" parent="1">
          <mxGeometry x="354" y="340" width="120" height="60" as="geometry" />
        </mxCell>
        <mxCell id="wJMfoI_AiMmCnmL7STVD-17" value="Magento GraphQL" style="rounded=0;whiteSpace=wrap;html=1;" vertex="1" parent="1">
          <mxGeometry x="610" y="450" width="120" height="60" as="geometry" />
        </mxCell>
        <mxCell id="wJMfoI_AiMmCnmL7STVD-29" value="Rapidez checkout" style="rounded=0;whiteSpace=wrap;html=1;" vertex="1" parent="1">
          <mxGeometry x="354" y="450" width="120" height="60" as="geometry" />
        </mxCell>
        <mxCell id="wJMfoI_AiMmCnmL7STVD-32" value="Customer + cart data" style="endArrow=classic;startArrow=classic;html=1;rounded=0;exitX=0;exitY=0.5;exitDx=0;exitDy=0;" edge="1" parent="1" source="wJMfoI_AiMmCnmL7STVD-17" target="wJMfoI_AiMmCnmL7STVD-29">
          <mxGeometry x="0.0243" y="-10" width="50" height="50" relative="1" as="geometry">
            <mxPoint x="260" y="510" as="sourcePoint" />
            <mxPoint x="310" y="460" as="targetPoint" />
            <mxPoint as="offset" />
          </mxGeometry>
        </mxCell>
        <mxCell id="wJMfoI_AiMmCnmL7STVD-33" value="" style="edgeStyle=orthogonalEdgeStyle;rounded=0;orthogonalLoop=1;jettySize=auto;html=1;" edge="1" parent="1" target="wJMfoI_AiMmCnmL7STVD-37">
          <mxGeometry relative="1" as="geometry">
            <mxPoint x="475" y="350" as="sourcePoint" />
            <Array as="points">
              <mxPoint x="541" y="350" />
              <mxPoint x="541" y="350" />
            </Array>
          </mxGeometry>
        </mxCell>
        <mxCell id="wJMfoI_AiMmCnmL7STVD-34" value="&amp;nbsp;Get mask + token" style="edgeLabel;html=1;align=center;verticalAlign=middle;resizable=0;points=[];" vertex="1" connectable="0" parent="wJMfoI_AiMmCnmL7STVD-33">
          <mxGeometry x="-0.0568" y="1" relative="1" as="geometry">
            <mxPoint x="-2" y="-9" as="offset" />
          </mxGeometry>
        </mxCell>
        <mxCell id="wJMfoI_AiMmCnmL7STVD-35" value="" style="edgeStyle=orthogonalEdgeStyle;rounded=0;orthogonalLoop=1;jettySize=auto;html=1;entryX=1;entryY=0.838;entryDx=0;entryDy=0;entryPerimeter=0;" edge="1" parent="1" target="wJMfoI_AiMmCnmL7STVD-11">
          <mxGeometry relative="1" as="geometry">
            <mxPoint x="611" y="390.00000000000006" as="sourcePoint" />
            <mxPoint x="480" y="390" as="targetPoint" />
          </mxGeometry>
        </mxCell>
        <mxCell id="wJMfoI_AiMmCnmL7STVD-36" value="Add cookies" style="edgeLabel;html=1;align=center;verticalAlign=middle;resizable=0;points=[];" vertex="1" connectable="0" parent="wJMfoI_AiMmCnmL7STVD-35">
          <mxGeometry x="-0.2458" relative="1" as="geometry">
            <mxPoint x="-21" y="-10" as="offset" />
          </mxGeometry>
        </mxCell>
        <mxCell id="wJMfoI_AiMmCnmL7STVD-37" value="Rapidez Cache" style="rounded=0;whiteSpace=wrap;html=1;" vertex="1" parent="1">
          <mxGeometry x="610" y="340" width="120" height="57.5" as="geometry" />
        </mxCell>
      </root>
    </mxGraphModel>
  </diagram>
</mxfile>
